inDegrees=no
num_controls=7
num_derivatives=13
num_iterations=44
num_multipliers=7
num_parameters=0
num_slacks=7
num_states=26
objective=0.426161
objective_accelerations=0.059742
objective_balance=0.001196
objective_effort=0.015579
objective_height=0.343686
objective_ligament=0.005958
solver_duration=646.981107
status=Solve_Succeeded
success=true
DataType=double
version=3
OpenSimVersion=4.5
endheader
time	/jointset/ground_pelvis/pelvis_tilt/value	/jointset/ground_pelvis/pelvis_tx/value	/jointset/ground_pelvis/pelvis_ty/value	/jointset/hip_l/hip_flexion_l/value	/jointset/hip_l/hip_adduction_l/value	/jointset/hip_l/hip_rotation_l/value	/jointset/back/lumbar_extension/value	/jointset/patellofemoral_l/patellar_flexion_l/value	/jointset/knee_l/knee_flexion_l/value	/jointset/knee_l/knee_adduction_l/value	/jointset/knee_l/knee_rotation_l/value	/jointset/ankle_l/ankle_angle_l/value	/jointset/subtalar_l/subtalar_angle_l/value	/jointset/ground_pelvis/pelvis_tilt/speed	/jointset/ground_pelvis/pelvis_tx/speed	/jointset/ground_pelvis/pelvis_ty/speed	/jointset/hip_l/hip_flexion_l/speed	/jointset/hip_l/hip_adduction_l/speed	/jointset/hip_l/hip_rotation_l/speed	/jointset/back/lumbar_extension/speed	/jointset/patellofemoral_l/patellar_flexion_l/speed	/jointset/knee_l/knee_flexion_l/speed	/jointset/knee_l/knee_adduction_l/speed	/jointset/knee_l/knee_rotation_l/speed	/jointset/ankle_l/ankle_angle_l/speed	/jointset/subtalar_l/subtalar_angle_l/speed	/forceset/tau_hip_flexion_l	/forceset/tau_hip_adduction_l	/forceset/tau_hip_rotation_l	/forceset/tau_knee_flexion_l	/forceset/tau_ankle_angle_l	/forceset/tau_subtalar_angle_l	/forceset/tau_lumbar_extension	lambda_cid13_p0	lambda_cid13_p1	lambda_cid13_p2	lambda_cid13_p3	lambda_cid13_p4	lambda_cid13_p5	lambda_cid14_p0	/jointset/ground_pelvis/pelvis_tilt/accel	/jointset/ground_pelvis/pelvis_tx/accel	/jointset/ground_pelvis/pelvis_ty/accel	/jointset/hip_l/hip_flexion_l/accel	/jointset/hip_l/hip_adduction_l/accel	/jointset/hip_l/hip_rotation_l/accel	/jointset/back/lumbar_extension/accel	/jointset/patellofemoral_l/patellar_flexion_l/accel	/jointset/knee_l/knee_flexion_l/accel	/jointset/knee_l/knee_adduction_l/accel	/jointset/knee_l/knee_rotation_l/accel	/jointset/ankle_l/ankle_angle_l/accel	/jointset/subtalar_l/subtalar_angle_l/accel	gamma_cid13_p0	gamma_cid13_p1	gamma_cid13_p2	gamma_cid13_p3	gamma_cid13_p4	gamma_cid13_p5	gamma_cid14_p0
1.5	-0.3535293767688544	0.05241819546503021	0.7866930645638265	1.029102489247722	-0.3560265671776199	-0.04701420543497754	-0.3296609036994744	0.8374199668263573	0.8374199668262688	-0.02755131031220841	-0.1690130665537157	0.2827549329014331	0.1609768994169414	0.5079204214410226	0.271719613571167	0.5167476449890968	-2.374806868085757	0.002975197056011691	-0.5821163002739813	0.6153976371712226	-2.253089918804737	-2.253089918804428	-0.3184166128373939	0.05693766274274952	-0.5598654283516684	-0.222059365065412	-0.1366942826562766	0.08012933820318478	-0.00186194944211213	-0.1257765110590568	-0.03378055142264062	-0.01460156601015608	0.1286224302672708	-36.43082710347177	13.67144493944411	-3.547124194430414	-1.298678226929924	-427.9991395616052	-23.09156587067301	-9.30343250100522	0.658910412744576	0.5707864728342441	-0.7999741263528857	-1.285311797985446	0.3100832649701623	-0.4665943441183126	1.616118896261494	-1.17056615708589	-1.170566157085803	-0.07103773787122994	0.3656415848035655	-0.5931098727596845	0.4109883357427452	6.155196425151767e-07	-5.365735478260725e-07	-8.024579640708747e-06	-4.413043230437141e-07	1.594142554514666e-06	1.768028670338199e-06	8.804827507382441e-07
1.51	-0.3484176643926953	0.05516342179846686	0.7918195883111413	1.005291928995413	-0.3559840177883096	-0.05285154661051961	-0.3234285573865119	0.8148320006890774	0.8148320006890966	-0.03074881115411716	-0.168424195736858	0.2771259797755589	0.1587728027131531	0.5142886775233435	0.2772650006709245	0.5084474569516017	-2.38693939510989	0.005547339878083573	-0.5853152106023665	0.6309228680714661	-2.26424118040049	-2.264241180400386	-0.3210344946261832	0.06086442078693659	-0.5658755982899545	-0.218729134725659	-0.1316470179345808	0.07864912327577095	-0.000872832770406343	-0.1231519192158543	-0.03329257181779951	-0.01562600791873543	0.1244096437709475	-36.14246819612542	13.85900961649671	-3.340744636953585	-1.005229949968857	-424.6217291610911	-23.04696331832339	-10.23389348010147	0.605825938836575	0.5372505469486414	-0.861162655960327	-1.122272252597731	0.233857457548553	-0.2400774787192301	1.498411584445642	-1.048262623239214	-1.04826262327016	-0.3500295728917043	0.4089586666636053	-0.597516783330954	0.299566575808239	6.046775008011047e-07	-1.072990437588414e-07	-7.816641643682955e-06	-3.692126725641948e-07	1.616537339741132e-06	2.162836903488117e-06	8.791740331561377e-07
1.52	-0.3432462609091431	0.0579622691465814	0.7968598858753785	0.9813710336532667	-0.3559151314374338	-0.05871958450964635	-0.3170454214850393	0.7921403506433562	0.7921403506434784	-0.03397106404864871	-0.1677955041890579	0.2714384157045067	0.1566031135513057	0.5198586429200962	0.2824438165067433	0.4995024083736034	-2.396873886052845	0.008242589369066165	-0.5882556449915716	0.6455555548733082	-2.273826700493015	-2.273826700493117	-0.3233670233553255	0.06490180892862045	-0.5715876173869558	-0.2151778566772374	-0.1265997532128783	0.0771689083483771	0.0001162839011855677	-0.1205273273726488	-0.03280459221295167	-0.01665044982728393	0.1201968572746273	-35.84924307063798	14.04417895367576	-3.1322155795679	-0.7638857908195374	-421.1656370156153	-23.11893832792708	-11.16162224193638	0.4992522756308804	0.497472220046547	-0.928946234453484	-0.8457045817500152	0.3347045987523203	-0.414899156282286	1.437610076581209	-0.8574178564404605	-0.8574178564404149	-0.01396712594181589	0.3877676043029556	-0.5334797045027353	0.4551978774765035	5.939019924511092e-07	2.391657469122884e-07	-7.634849220364784e-06	-3.098101286635024e-07	1.641181187073816e-06	2.489421004923846e-06	8.759118246159459e-07
1.53	-0.3380225010542787	0.06081118536622948	0.8018075389909753	0.9573612178519756	-0.3558191057367024	-0.06461455460675103	-0.310520042205818	0.7693613522415116	0.7693613522414181	-0.03721632683292785	-0.1671252985465586	0.2656957649293483	0.1544697185153584	0.524813467126676	0.2872893781407881	0.4899204744203436	-2.404755180427268	0.01093097890586701	-0.5905069648958764	0.6594211654332863	-2.28162635581391	-2.281626355813831	-0.3257997803914116	0.06925389704833126	-0.576833846936842	-0.211509214344486	-0.1223132985749668	0.0755299423577412	0.001252207402120017	-0.1172822183612628	-0.03320723861859128	-0.01776565083448555	0.1165883108650222	-35.86418051351747	14.29839694684671	-2.906915329863959	-0.3809277117694657	-418.0027241144013	-23.06013038861152	-12.08496698400032	0.4816657330279328	0.470542881634108	-0.9886414871315071	-0.7091468325243623	0.2322553617899734	-0.09457218535540549	1.346166215067259	-0.689419303795516	-0.6894193037681957	-0.3752486511893717	0.4747694215207208	-0.5038629265379053	0.3222685653061601	5.831972820504448e-07	4.976452171000614e-07	-7.480836469110963e-06	-2.638897605028133e-07	1.668214662894355e-06	2.743516966413248e-06	8.705740319327884e-07
